<svg viewBox="80 205 310 100" xmlns="http://www.w3.org/2000/svg" role="img" aria-label="VINCE Engenharia">
  <g transform="translate(25.919142,-25.796967)">
    <path style="fill:#ffffff;fill-opacity:0.996078" d="M 175.32571,314.85043 V 315.69 h -5.04054 v -0.83957 z m -4.77735,-6.94645 V 315.69 h -1.4675 v -7.78602 z m 4.09943,3.34757 v 0.83956 h -4.36262 v -0.83956 z m 0.59816,-3.34757 v 0.84492 h -4.96078 v -0.84492 z m 13.29525,0 V 315.69 h -1.47548 l -4.64974,-6.00529 V 315.69 h -1.4675 v -7.78602 h 1.4675 l 4.67367,6.02133 v -6.02133 z m 13.55046,3.90906 v 2.90371 q -0.19142,0.17112 -0.58222,0.4278 -0.38282,0.25668 -1.0767,0.45455 -0.69387,0.19785 -1.81842,0.19785 -0.90124,0 -1.65094,-0.2032 -0.74173,-0.20321 -1.28407,-0.60962 -0.53436,-0.41176 -0.82946,-1.02139 -0.29509,-0.61496 -0.29509,-1.43849 v -1.45987 q 0,-0.81818 0.24724,-1.43314 0.24724,-0.61497 0.73375,-1.02138 0.49448,-0.40641 1.22026,-0.60962 0.73375,-0.20321 1.70678,-0.20321 1.12454,0 1.91412,0.28342 0.78958,0.28342 1.22027,0.81817 0.43864,0.53476 0.49448,1.28341 h -1.4675 q -0.0558,-0.48128 -0.30308,-0.82352 -0.24724,-0.34759 -0.70185,-0.5294 -0.45461,-0.18717 -1.15644,-0.18717 -0.66996,0 -1.13254,0.14973 -0.46258,0.14974 -0.75767,0.4492 -0.28713,0.29946 -0.42271,0.754 -0.12761,0.45454 -0.12761,1.05881 v 1.47057 q 0,0.62032 0.18344,1.08021 0.18343,0.45989 0.51841,0.75935 0.34295,0.29946 0.82148,0.4492 0.47854,0.14438 1.0767,0.14438 0.67792,0 1.06873,-0.0963 0.3908,-0.0963 0.59816,-0.21924 0.21535,-0.123 0.34295,-0.19787 v -1.79677 h -2.12947 v -0.83421 z m 12.37008,3.03739 V 315.69 h -5.04055 v -0.83957 z m -4.77736,-6.94645 V 315.69 h -1.4675 v -7.78602 z m 4.09943,3.34757 v 0.83956 h -4.36262 v -0.83956 z m 0.59817,-3.34757 v 0.84492 h -4.96079 v -0.84492 z m 13.29524,0 V 315.69 h -1.47547 L 221.552,309.68471 V 315.69 h -1.4675 v -7.78602 h 1.4675 l 4.67367,6.02133 v -6.02133 z m 12.57743,3.34757 v 0.83956 h -5.03257 v -0.83956 z m -4.83318,-3.34757 V 315.69 h -1.4675 v -7.78602 z m 6.1332,0 V 315.69 h -1.4675 v -7.78602 z m 10.04122,0.68984 -3.17427,7.09618 h -1.4994 l 3.74053,-7.78602 h 0.94112 z m 2.56812,7.09618 -3.17426,-7.09618 -0.016,-0.68984 h 0.94909 l 3.74053,7.78602 z m 0,-2.88232 v 0.8449 h -5.59884 v -0.8449 z m 6.84302,-4.9037 h 3.24605 q 1.13254,0 1.89819,0.26738 0.77362,0.26738 1.16443,0.79143 0.39877,0.51872 0.39877,1.27807 0,0.53475 -0.26319,0.9786 -0.26319,0.4385 -0.76566,0.74866 -0.50246,0.3048 -1.22025,0.45453 l -0.39878,0.11231 h -2.89512 l -0.016,-0.83957 h 2.08161 q 0.66996,0 1.11658,-0.19251 0.44663,-0.19786 0.66995,-0.52941 0.22332,-0.33155 0.22332,-0.73261 0,-0.44919 -0.1994,-0.78609 -0.19939,-0.3369 -0.63804,-0.51871 -0.43068,-0.18716 -1.15646,-0.18716 h -1.77855 v 6.9411 h -1.46749 z m 5.57491,7.78602 -2.31291,-3.52937 1.52334,-0.006 2.36076,3.47056 v 0.0642 z m 8.36635,-7.78602 V 315.69 h -1.46749 v -7.78602 z m 10.06515,0.68984 -3.17426,7.09618 h -1.49941 l 3.74054,-7.78602 h 0.9411 z m 2.56813,7.09618 -3.17427,-7.09618 -0.016,-0.68984 h 0.94909 l 3.74053,7.78602 z m 0,-2.88232 v 0.8449 h -5.59884 v -0.8449 z" />
    <path style="fill:#ffffff;fill-opacity:0.996078" d="m 104.08085,235.79793 24.04226,51.99937 23.95774,-51.99937 h -4.0228 l -20.11001,44.14587 c 0,0 -13.5329,-29.64073 -19.83633,-44.14587 z m 64,0 v 51.99937 h 4 v -51.99937 z m 60.06945,0.003 v 43.82271 l -10.0634,-10.66187 -5.29068,-0.2004 19.28464,19.03209 v -51.99229 z m -40.06945,-0.003 v 51.99937 h 3.93251 v -42.99576 l 10.83946,11.59038 5.25472,0.2088 z m 84.40825,0.001 c -3.88204,0 -7.32072,0.75483 -10.34444,2.23577 h -0.008 c -3.04304,1.44234 -5.58736,3.39856 -7.658,5.89089 -0.003,0.003 -0.004,0.004 -0.008,0.008 -2.08372,2.45997 -3.67764,5.19998 -4.79232,8.23914 -1.06656,2.99172 -1.59748,6.04657 -1.59748,9.18153 0,3.22836 0.58544,6.43216 1.75136,9.62364 1.1628,3.13157 2.80072,5.97733 4.9268,8.53002 2.17812,2.50529 4.74612,4.52651 7.70084,6.06933 2.92724,1.47902 6.13044,2.22021 9.65292,2.22021 2.59988,0 5.25776,-0.45375 7.97356,-1.3709 2.75416,-0.91379 5.23064,-2.25905 7.45156,-4.03715 2.02632,-1.6223 3.49532,-3.59204 4.54296,-5.85021 l -3.10724,-1.60362 c -1.09496,2.06597 -2.47396,3.83447 -4.21764,5.19477 -1.84528,1.47815 -3.8536,2.58101 -6.01576,3.29836 -2.14776,0.71264 -4.26568,1.07815 -6.33332,1.07815 -2.92772,0 -5.66576,-0.61543 -8.19372,-1.84794 -0.008,-0.002 -0.016,-0.004 -0.02,-0.008 -2.4588,-1.27466 -4.60872,-2.9676 -6.45024,-5.05514 -0.002,-0.002 -0.004,-0.004 -0.008,-0.008 -1.84136,-2.13829 -3.27172,-4.58078 -4.29168,-7.32195 -1.02176,-2.74584 -1.53116,-5.62577 -1.53116,-8.61921 0,-2.74121 0.42936,-5.43166 1.29544,-8.06851 0.86776,-2.69273 2.15348,-5.1149 3.8436,-7.25603 1.7456,-2.19741 3.88272,-3.94707 6.3976,-5.22582 l 0.008,-0.008 c 2.5414,-1.34034 5.46528,-2.00109 8.73336,-2.00109 2.00624,0 4.01276,0.31239 6.008,0.92298 2.07384,0.61924 4.02132,1.64283 5.82288,3.07733 1.64808,1.2675 2.98504,3.01544 4.10272,5.08622 l 2.95136,-1.81694 c -1.53644,-2.98793 -3.80148,-5.45722 -6.89044,-7.40147 l -0.002,-0.002 h -0.002 c -0.003,-0.001 -0.008,-0.002 -0.012,-0.004 l -0.002,-0.002 c -3.20096,-2.09238 -7.06732,-3.151 -11.67692,-3.151 z m 35.59176,-0.001 v 51.99937 h 36 v -3.27136 h -31.23244 c -0.40264,-10e-4 -0.72816,-0.31279 -0.7292,-0.69831 v -20.3796 c 0.001,-0.38559 0.3268,-0.69731 0.7292,-0.69831 h 26.5204 v -3.03332 h -26.5204 c -0.40264,-0.001 -0.72816,-0.3148 -0.7292,-0.70031 v -19.25637 c 0.001,-0.3856 0.3268,-0.69731 0.7292,-0.69831 h 30.51764 v -3.26348 z" />
  </g>
</svg>
